/* XPM */
static char *_1731_06426881a4c677a65fd1863e35d064ffcd2381689596df4f60ea8802a73f7cb1[] = {
/* columns rows colors chars-per-pixel */
"52 52 2 1 ",
"  c black",
". c white",
/* pixels */
"                                                    ",
"                                                    ",
"  ................................................  ",
"  ................................................  ",
"  ................................................  ",
"  ................................................  ",
"  ................................................  ",
"  ................................................  ",
"  ................................................  ",
"  ................................................  ",
"  ................................................  ",
"  ................................................  ",
"  ................................................  ",
"  ................................................  ",
"  ................................................  ",
"  ................................................  ",
"  ................................................  ",
"  ................................................  ",
"  ................................................  ",
"  ................................................  ",
"  ................................................  ",
"  ................................................  ",
"  ................................................  ",
"  ................................................  ",
"  ................................................  ",
"  ................................................  ",
"  ................................................  ",
"  ................................................  ",
"  ................................................  ",
"  ................................................  ",
"  ................................................  ",
"  ................................................  ",
"  ................................................  ",
"  ................................................  ",
"  ................................................  ",
"  ................................................  ",
"  ................................................  ",
"  ................................................  ",
"  ................................................  ",
"  ................................................  ",
"  ................................................  ",
"  ................................................  ",
"  ................................................  ",
"  ................................................  ",
"  ................................................  ",
"  ................................................  ",
"  ................................................  ",
"  ................................................  ",
"  ................................................  ",
"  ................................................  ",
"                                                    ",
"                                                    "
};
