/* XPM */
static char *_8756_23de82000c64a07d6d9b4cdcd21c4f80e17dc27f8808549706241418aa7002c6[] = {
/* columns rows colors chars-per-pixel */
"52 52 125 2 ",
"   c #000000",
".  c #070909",
"X  c #0A0A0B",
"o  c #131315",
"O  c #171718",
"+  c #1B1B1B",
"@  c #222222",
"#  c #2B2B2C",
"$  c #2D2D30",
"%  c #333335",
"&  c #373739",
"*  c #3C3C3C",
"=  c #672004",
"-  c #6B2406",
";  c #742C0D",
":  c #622B17",
">  c #642C18",
",  c #763210",
"<  c #7C3512",
"1  c #7B3B14",
"2  c #6B3825",
"3  c #784E3F",
"4  c #454545",
"5  c #47474D",
"6  c #4B4B4C",
"7  c #4D4D50",
"8  c #535354",
"9  c #5C5C5C",
"0  c #646464",
"q  c #656669",
"w  c #696A6A",
"e  c #6D6E73",
"r  c #737374",
"t  c #77777A",
"y  c #7A7A7A",
"u  c #843C12",
"i  c #8B4210",
"p  c #904610",
"a  c #904A18",
"s  c #965221",
"d  c #9E5E2E",
"f  c #865232",
"g  c #88685D",
"h  c #A57049",
"j  c #AC764F",
"k  c #AD7751",
"l  c #AD7853",
"z  c #F66666",
"x  c #F66C6C",
"c  c #F77474",
"v  c #F77878",
"b  c #9B837C",
"n  c #A28170",
"m  c #BA9073",
"M  c #7E8082",
"N  c #818181",
"B  c #8E8E8E",
"V  c #848590",
"C  c #8B8C90",
"Z  c #9E8F93",
"A  c #929394",
"S  c #94959B",
"D  c #9C9C9E",
"F  c #A49596",
"G  c #AB9C9A",
"H  c #9C9DA3",
"J  c #9C9EAB",
"K  c #A3A3A4",
"L  c #A3A5AB",
"P  c #ACACAC",
"I  c #B8A9A5",
"U  c #B3B3B3",
"Y  c #B3B4BB",
"T  c #BDBDBE",
"R  c #C29C83",
"E  c #F99595",
"W  c #FB9A9A",
"Q  c #CCAE9C",
"!  c #CEC0BB",
"~  c #DBC9BD",
"^  c #B9BAC1",
"/  c #BFC0C0",
"(  c #C1C1C1",
")  c #C9C0C0",
"_  c #C5C6CB",
"`  c #C7C9C9",
"'  c #CACBCB",
"]  c #D6CFCE",
"[  c #D9C8C8",
"{  c #DFD2CB",
"}  c #CDCEDA",
"|  c #CFD1D8",
" . c #D3D3D3",
".. c #D4D4D9",
"X. c #DCDCDC",
"o. c #EACECE",
"O. c #FEC5C5",
"+. c #FCCCCC",
"@. c #E0DCDE",
"#. c #E8DEDA",
"$. c #FCD5D5",
"%. c #FDD9D9",
"&. c #DDDFE6",
"*. c #DCDDE9",
"=. c #E2DFE0",
"-. c #E1E2E2",
";. c #EBE7E7",
":. c #EFE8E3",
">. c #E7E8EE",
",. c #EEECEC",
"<. c #F5E5E5",
"1. c #FCE4E4",
"2. c #F7E7E8",
"3. c #F1EEEE",
"4. c #FEEFEF",
"5. c #E5E6F3",
"6. c #E7E9F5",
"7. c #EDEEF6",
"8. c #EBEDF8",
"9. c #EFF1FB",
"0. c #F3F3F4",
"q. c #FCF4F4",
"w. c #F3F4FA",
"e. c #F6F8FE",
"r. c #FFFFFF",
/* pixels */
"                                                                                                        ",
"                                                                                                        ",
"    r.r.r.r.r.r.r.r.r.r.r.r.r.r.r.r.r.r.r.r.r.r.r.r.r.r.r.r.r.r.r.r.r.r.r.r.r.r.r.r.r.r.r.r.r.r.r.r.    ",
"    r.r.r.r.r.r.r.r.r.r.r.r.r.r.r.r.r.r.r.r.r.r.r.r.r.r.r.r.r.r.r.r.r.r.r.r.r.r.r.r.r.r.r.r.r.r.r.r.    ",
"    r.r.r.r.r.r.r.r.r.r.r.r.r.r.r.r.r.r.r.r.r.r.r.r.r.r.r.r.r.r.r.r.r.r.r.r.r.r.r.r.r.r.r.r.r.r.r.r.    ",
"    r.r.r.r.r.r.r.r.r.r.r.r.r.r.r.r.r.r.r.r.r.r.r.r.r.r.r.r.r.r.r.r.r.r.r.r.r.r.r.r.r.r.r.r.r.r.r.r.    ",
"    r.r.r.r.r.r.r.r.r.r.r.r.r.r.r.r.r.r.r.r.r.r.r.r.r.r.r.r.r.r.r.r.r.r.r.r.r.r.r.r.r.r.r.r.r.r.r.r.    ",
"    r.r.r.r.r.r.r.r.r.r.r.r.r.r.r.r.r.r.r.r.r.r.r.r.r.r.r.r.r.r.r.r.r.r.r.r.r.r.r.r.r.r.r.r.r.r.r.r.    ",
"    r.r.r.r.r.r.r.r.r.r.r.r.r.r.r.r.r.r.r.r.r.r.r.r.r.r.r.r.r.r.r.r.r.r.r.r.r.r.r.r.r.r.r.r.r.r.r.r.    ",
"    r.r.r.r.r.r.r.r.r.r.r.r.r.r.r.r.r.r.r.r.r.r.r.r.r.r.r.r.r.r.r.r.r.r.r.r.r.r.r.r.r.r.r.r.r.r.r.r.    ",
"    r.r.r.r.r.r.r.r.r.r.r.r.r.r.r.r.                              r.r.r.r.r.r.r.r.r.r.r.r.r.r.r.r.r.    ",
"    r.r.r.r.r.r.r.r.r.r.r.r.r.r.    o * * * * * * * * * * * * # .     r.r.r.r.r.r.r.r.r.r.r.r.r.r.r.    ",
"    r.r.r.r.r.r.r.r.r.r.r.r.r.  o 6 D X.X.X.X.X.X.X.X.X.X.X.@.( y #     r.r.r.r.r.r.r.r.r.r.r.r.r.r.    ",
"    r.r.r.r.r.r.r.r.r.r.r.r.  4 D X.3.;.3.3.3.;.,.3.,.,.3.3.,.3.,.T y +   r.r.r.r.r.r.r.r.r.r.r.r.r.    ",
"    r.r.r.r.r.r.r.r.r.r.r.  6 ` 0.#.Q l k k k k j k l l l l j m ~ 3.,.B O   r.r.r.r.r.r.r.r.r.r.r.r.    ",
"    r.r.r.r.r.r.r.r.r.r.r.O U 0.~ l s i i i i i i i i i i i i a d R :.>.0   r.r.r.r.r.r.r.r.r.r.r.r.    ",
"    r.r.r.r.r.r.r.r.r.r.r.+ / { h p u , ; ; ; ; ; ; ; ; ; ; ; < i s R >.w   r.r.r.r.r.r.r.r.r.r.r.r.    ",
"    r.r.r.r.r.r.r.r.r.r.r.+ T ! f 1 ; - = = = = = = = = = = = - , 1 n -.w   r.r.r.r.r.r.r.r.r.r.r.r.    ",
"    r.r.r.r.r.r.r.r.r.r.r.O / >.I g 2 > : : : : : : : : : : > > 3 b ] 3.r O o o X   r.r.r.r.r.r.r.r.    ",
"    r.r.r.r.r.r.r.r.r.r.r.+ ! e.e.@.I G F Z Z Z Z Z Z Z Z F F G ) ,.r.r.Y S D D y +   r.r.r.r.r.r.r.    ",
"    r.r.r.r.r.r.r.r.r.r.r.+ / r.r.r.r.e.w.w.w.w.w.w.w.w.w.w.e.r.r.r.r.e.5.7.e.r.,.A +   r.r.r.r.r.r.    ",
"    r.r.r.r.r.r.r.r.r.r.r.+ / r.r.r.r.r.r.r.r.r.r.r.r.r.r.r.r.r.r.r.r.r.*.&.>.w.r.,.B O   r.r.r.r.r.    ",
"    r.r.r.r.r.r.r.r.r.r.r.O T r.r.r.r.r.r.r.r.r.r.r.r.r.r.r.r.r.r.r.r.e.C 8 8 w ' r.' &   r.r.r.r.r.    ",
"    r.r.r.r.r.r.r.r.r.r.r.+ / r.r.r.r.r.r.r.r.r.r.r.r.r.r.r.r.r.r.r.r.w.9       0 0. .*   r.r.r.r.r.    ",
"    r.r.r.r.r.r.r.r.r.r.r.O ! e.r.r.r.r.r.r.r.r.r.r.r.r.r.r.r.r.r.r.r.0.9   r.  4 7. .*   r.r.r.r.r.    ",
"    r.r.r.r.r.r.r.r.r.r.r.+ T r.r.r.r.r.r.r.r.r.r.r.r.r.r.r.r.r.r.r.r.0.9   r.  4 ,.' *   r.r.r.r.r.    ",
"    r.r.r.r.r.r.r.r.r.r.r.+ ( r.r.r.r.e.0.e.r.r.r.r.r.r.r.q.w.r.r.r.r.w.9   r.  6 3. .*   r.r.r.r.r.    ",
"    r.r.r.r.r.r.r.r.r.r.r.O ( r.r.r.0.! A ` e.r.r.r.r.r.,.K D =.r.r.r.0.9       8 3.' *   r.r.r.r.r.    ",
"    r.r.r.r.r.r.r.r.r.r.r.+ T r.r.r.3.N @ B 0.r.r.r.r.r. .4 * / r.r.r.w.t # # 4 P e.` &   r.r.r.r.r.    ",
"    r.r.r.r.r.r.r.r.r.r.r.+ / r.r.r.3.N + B 0.r.r.r.r.r. .4 & T r.r.r.r.} _ ' ..0.8.H @   r.r.r.r.r.    ",
"    r.r.r.r.r.r.r.r.r.r.r.O / r.r.r.0.A * D 0.r.r.r.r.r.X.9 8 ' r.r.r.r.6.9.e.e.6.L %     r.r.r.r.r.    ",
"    r.r.r.r.r.r.r.r.r.r.r.+ / 4.$.$.$.[ T X.r.r.r.r.r.r.0.` ! o.$.$.1.e./ ^ ^ ^ D %     r.r.r.r.r.r.    ",
"    r.r.r.r.r.r.r.r.r.r.r.+ ( +.c x v O.r.r.r.r.r.r.r.r.r.r.4.W x x E 2.M % $ $ +     r.r.r.r.r.r.r.    ",
"    r.r.r.r.r.r.r.r.r.r.r.O ( +.x z c O.-.' 0.r.r.r.r.r.=.' <.W z z E <.w           r.r.r.r.r.r.r.r.    ",
"    r.r.r.r.r.r.r.r.r.r.r.+ ( q.%.$.%.4.0.T U ( / ! ( T U  .e.1.$.$.1.4.w   r.r.r.r.r.r.r.r.r.r.r.r.    ",
"    r.r.r.r.r.r.r.r.r.r.r.+ T r.r.r.r.r.r.,.T K K K K P  .e.r.r.r.r.r.0.w   r.r.r.r.r.r.r.r.r.r.r.r.    ",
"    r.r.r.r.r.r.r.r.r.r.r.O T e.r.r.r.r.r.r.w.0.7.3.3.3.r.r.r.r.r.r.r.0.q   r.r.r.r.r.r.r.r.r.r.r.r.    ",
"    r.r.r.r.r.r.r.r.r.r.r.o S ,.r.r.r.r.r.r.r.r.r.r.r.r.r.r.r.r.r.r.e...7   r.r.r.r.r.r.r.r.r.r.r.r.    ",
"    r.r.r.r.r.r.r.r.r.r.r.  # K >.w.e.r.r.r.r.r.r.r.r.r.r.r.r.r.e.7.| q .   r.r.r.r.r.r.r.r.r.r.r.r.    ",
"    r.r.r.r.r.r.r.r.r.r.r.    @ e Y &.7.7.7.8.8.8.7.8.7.8.7.9.>. .A 6 X   r.r.r.r.r.r.r.r.r.r.r.r.r.    ",
"    r.r.r.r.r.r.r.r.r.r.r.r.      # q H J J J J J J J J J J J V 5 o     r.r.r.r.r.r.r.r.r.r.r.r.r.r.    ",
"    r.r.r.r.r.r.r.r.r.r.r.r.r.r.    . o o o o o o o O o o O O X     r.r.r.r.r.r.r.r.r.r.r.r.r.r.r.r.    ",
"    r.r.r.r.r.r.r.r.r.r.r.r.r.r.r.r.r.r.r.r.r.r.r.r.r.r.r.r.r.r.r.r.r.r.r.r.r.r.r.r.r.r.r.r.r.r.r.r.    ",
"    r.r.r.r.r.r.r.r.r.r.r.r.r.r.r.r.r.r.r.r.r.r.r.r.r.r.r.r.r.r.r.r.r.r.r.r.r.r.r.r.r.r.r.r.r.r.r.r.    ",
"    r.r.r.r.r.r.r.r.r.r.r.r.r.r.r.r.r.r.r.r.r.r.r.r.r.r.r.r.r.r.r.r.r.r.r.r.r.r.r.r.r.r.r.r.r.r.r.r.    ",
"    r.r.r.r.r.r.r.r.r.r.r.r.r.r.r.r.r.r.r.r.r.r.r.r.r.r.r.r.r.r.r.r.r.r.r.r.r.r.r.r.r.r.r.r.r.r.r.r.    ",
"    r.r.r.r.r.r.r.r.r.r.r.r.r.r.r.r.r.r.r.r.r.r.r.r.r.r.r.r.r.r.r.r.r.r.r.r.r.r.r.r.r.r.r.r.r.r.r.r.    ",
"    r.r.r.r.r.r.r.r.r.r.r.r.r.r.r.r.r.r.r.r.r.r.r.r.r.r.r.r.r.r.r.r.r.r.r.r.r.r.r.r.r.r.r.r.r.r.r.r.    ",
"    r.r.r.r.r.r.r.r.r.r.r.r.r.r.r.r.r.r.r.r.r.r.r.r.r.r.r.r.r.r.r.r.r.r.r.r.r.r.r.r.r.r.r.r.r.r.r.r.    ",
"    r.r.r.r.r.r.r.r.r.r.r.r.r.r.r.r.r.r.r.r.r.r.r.r.r.r.r.r.r.r.r.r.r.r.r.r.r.r.r.r.r.r.r.r.r.r.r.r.    ",
"                                                                                                        ",
"                                                                                                        "
};
