/* XPM */
static char *_fd070e4b10c4ab299ffc91b8d4980afskLQfcr1MxQcSXoA[] = {
/* columns rows colors chars-per-pixel */
"50 50 256 2 ",
"   c black",
".  c #010101",
"X  c #020202",
"o  c gray1",
"O  c #040404",
"+  c gray2",
"@  c #060606",
"#  c #070707",
"$  c gray3",
"%  c #090909",
"&  c gray4",
"*  c #0B0B0B",
"=  c #0C0C0C",
"-  c gray5",
";  c #0E0E0E",
":  c gray6",
">  c #101010",
",  c #111111",
"<  c gray7",
"1  c #131313",
"2  c gray8",
"3  c #151515",
"4  c #161616",
"5  c gray9",
"6  c #181818",
"7  c #191919",
"8  c gray10",
"9  c #1B1B1B",
"0  c gray11",
"q  c #1D1D1D",
"w  c #1E1E1E",
"e  c gray12",
"r  c #202020",
"t  c gray13",
"y  c #222222",
"u  c #232323",
"i  c gray14",
"p  c #252525",
"a  c gray15",
"s  c #272727",
"d  c #282828",
"f  c gray16",
"g  c #2A2A2A",
"h  c gray17",
"j  c #2C2C2C",
"k  c #2D2D2D",
"l  c gray18",
"z  c #2F2F2F",
"x  c gray19",
"c  c #313131",
"v  c #323232",
"b  c gray20",
"n  c #343434",
"m  c #353535",
"M  c gray21",
"N  c #373737",
"B  c gray22",
"V  c #393939",
"C  c #3A3A3A",
"Z  c gray23",
"A  c #3C3C3C",
"S  c gray24",
"D  c #3E3E3E",
"F  c #3F3F3F",
"G  c gray25",
"H  c #414141",
"J  c gray26",
"K  c #434343",
"L  c #444444",
"P  c gray27",
"I  c #464646",
"U  c gray28",
"Y  c #484848",
"T  c #494949",
"R  c gray29",
"E  c #4B4B4B",
"W  c #4C4C4C",
"Q  c gray30",
"!  c #4E4E4E",
"~  c gray31",
"^  c #505050",
"/  c #515151",
"(  c gray32",
")  c #535353",
"_  c gray33",
"`  c #555555",
"'  c #565656",
"]  c gray34",
"[  c #585858",
"{  c gray35",
"}  c #5A5A5A",
"|  c #5B5B5B",
" . c gray36",
".. c #5D5D5D",
"X. c gray37",
"o. c #5F5F5F",
"O. c #606060",
"+. c gray38",
"@. c #626262",
"#. c gray39",
"$. c #646464",
"%. c #656565",
"&. c gray40",
"*. c #676767",
"=. c #686868",
"-. c DimGray",
";. c #6A6A6A",
":. c gray42",
">. c #6C6C6C",
",. c #6D6D6D",
"<. c gray43",
"1. c #6F6F6F",
"2. c gray44",
"3. c #717171",
"4. c #727272",
"5. c gray45",
"6. c #747474",
"7. c gray46",
"8. c #767676",
"9. c #777777",
"0. c gray47",
"q. c #797979",
"w. c gray48",
"e. c #7B7B7B",
"r. c #7C7C7C",
"t. c gray49",
"y. c #7E7E7E",
"u. c gray50",
"i. c #808080",
"p. c #818181",
"a. c gray51",
"s. c #838383",
"d. c #848484",
"f. c gray52",
"g. c #868686",
"h. c gray53",
"j. c #888888",
"k. c #898989",
"l. c gray54",
"z. c #8B8B8B",
"x. c gray55",
"c. c #8D8D8D",
"v. c #8E8E8E",
"b. c gray56",
"n. c #909090",
"m. c gray57",
"M. c #929292",
"N. c #939393",
"B. c gray58",
"V. c #959595",
"C. c gray59",
"Z. c #979797",
"A. c #989898",
"S. c gray60",
"D. c #9A9A9A",
"F. c #9B9B9B",
"G. c gray61",
"H. c #9D9D9D",
"J. c gray62",
"K. c #9F9F9F",
"L. c #A0A0A0",
"P. c gray63",
"I. c #A2A2A2",
"U. c gray64",
"Y. c #A4A4A4",
"T. c #A5A5A5",
"R. c gray65",
"E. c #A7A7A7",
"W. c gray66",
"Q. c #A9A9A9",
"!. c #AAAAAA",
"~. c gray67",
"^. c #ACACAC",
"/. c gray68",
"(. c #AEAEAE",
"). c #AFAFAF",
"_. c gray69",
"`. c #B1B1B1",
"'. c #B2B2B2",
"]. c gray70",
"[. c #B4B4B4",
"{. c gray71",
"}. c #B6B6B6",
"|. c #B7B7B7",
" X c gray72",
".X c #B9B9B9",
"XX c gray73",
"oX c #BBBBBB",
"OX c #BCBCBC",
"+X c gray74",
"@X c gray",
"#X c gray75",
"$X c #C0C0C0",
"%X c #C1C1C1",
"&X c gray76",
"*X c #C3C3C3",
"=X c gray77",
"-X c #C5C5C5",
";X c #C6C6C6",
":X c gray78",
">X c #C8C8C8",
",X c gray79",
"<X c #CACACA",
"1X c #CBCBCB",
"2X c gray80",
"3X c #CDCDCD",
"4X c #CECECE",
"5X c gray81",
"6X c #D0D0D0",
"7X c gray82",
"8X c #D2D2D2",
"9X c LightGray",
"0X c gray83",
"qX c #D5D5D5",
"wX c gray84",
"eX c #D7D7D7",
"rX c #D8D8D8",
"tX c gray85",
"yX c #DADADA",
"uX c gray86",
"iX c gainsboro",
"pX c #DDDDDD",
"aX c gray87",
"sX c #DFDFDF",
"dX c gray88",
"fX c #E1E1E1",
"gX c #E2E2E2",
"hX c gray89",
"jX c #E4E4E4",
"kX c gray90",
"lX c #E6E6E6",
"zX c #E7E7E7",
"xX c gray91",
"cX c #E9E9E9",
"vX c #EAEAEA",
"bX c gray92",
"nX c #ECECEC",
"mX c gray93",
"MX c #EEEEEE",
"NX c #EFEFEF",
"BX c gray94",
"VX c #F1F1F1",
"CX c gray95",
"ZX c #F3F3F3",
"AX c #F4F4F4",
"SX c gray96",
"DX c #F6F6F6",
"FX c gray97",
"GX c #F8F8F8",
"HX c #F9F9F9",
"JX c gray98",
"KX c #FBFBFB",
"LX c gray99",
"PX c #FDFDFD",
"IX c #FEFEFE",
"UX c white",
/* pixels */
"                                                                                                    ",
"  UXUXUXUXUXUXUXUXUXUXUXUXUXUXUXUXUXUXUXUXUXUXUXUXUXUXUXUXUXUXUXUXUXUXUXUXUXUXUXUXUXUXUXUXUXUXUXUX  ",
"  UXUXUXUXUXUXUXUXUXUXUXUXUXUXUXUXUXUXUXUXUXUXUXUXUXUXUXUXUXUXUXUXUXUXUXUXUXUXUXUXUXUXUXUXUXUXUXUX  ",
"  UXUXUXPXPXPXPXPXUXUXUXUXPXPXPXPXPXPXPXPXPXPXPXPXPXPXPXPXPXPXPXPXPXPXPXPXPXPXPXPXPXUXUXUXUXUXUXUX  ",
"  UXUXUXUXUXUXUXUXUXUXUXUXUXUXUXUXUXUXUXUXUXUXUXUXUXUXUXUXUXUXUXUXUXUXUXUXUXUXUXUXUXUXUXUXUXUXUXUX  ",
"  UXUXUXUXUXUXUXUXUXUXUXUXUXUXUXUXUXUXUXUXUX}.D.D.D.).UXUXUXUXUXUXUXUXUXUXUXUXUXUXUXUXUXUXUXPXUXUX  ",
"  UXUXUXUXUXUXUXUXUXUXUXUXUXUXUXUXUXUXUX.Xh.7 3 s 9 < f._.UXUXUXUXUXUXUXUXUXUXUXUXUXUXUXUXUXPXUXUX  ",
"  UXUXUXUXUXUXUXUXUXUXUXUXUXUXUXUXUX=X6.s < G j.OXV.Y 9 w 6. XUXUXUXUXUXUXUXUXUXUXUXUXUXUXUXPXUXUX  ",
"  UXUXPXUXUXUXUXUXUXUXUXUXUXUXUX9X+.v = L s.:XgXAXlX3Xb.~ 3 f O.:XUXUXUXUXUXUXUXUXUXUXUXUXUXPXUXUX  ",
"  UXUXPXUXUXUXUXUXUXUXUXUXUXjX^ M - U f.=XlXCXBXnXNXAXjX.Xu.M . f 3XUXUXUXUXUXUXUXUXUXUXUXUXPXUXUX  ",
"  UXUXPXUXUXUXUXUXUXUXPXBXT n : N k.$XxXNXBXnXnXnXNXwX4X).I.U.@.; p 9XUXUXUXUXUXUXUXUXUXUXUXPXUXUX  ",
"  UXUXPXUXUXUXUXUXHXAX! g 6 G g. XyXNXNXmXnXnXMXrX;X).h.h.&XnX:X#.; *XUXUXUXUXUXUXUXUXUXUXUXPXUXUX  ",
"  UXUXPXUXUXUXUXHX .q 7 Y i.#XqXmXbXmXnXnXMXcX;X).c.-.Q c a.tXDXXXc =XUXUXUXUXUXUXUXUXUXUXUXPXUXUX  ",
"  UXUXPXUXUXUXUX>.* Y 9.$XjXvXbXmXnXmXvXcX2X~.C.#.( u h j G !.Q.m.M =XUXUXUXUXUXUXUXUXUXUXUXPXUXUX  ",
"  UXUXPXUXUXUXUX&.Y N.~.:XfXxXvXbXxXzX7XW.N.&.E d p x D x S t.Q :.M -XUXUXUXUXUXUXUXUXUXUXUXPXUXUX  ",
"  UXUXPXUXUXUXUX-.2.*X{.I._.*XwXpX=X^.l.,.P h p k A C A x S 2.-.b.N =XUXUXUXUXUXUXUXUXUXUXUXPXUXUX  ",
"  UXUXPXUXUXUXUX-.3.nXaX3X`.I.].).j.=.D a g j Z Z C C A x A x.z.N.M =XUXUXUXUXUXUXUXUXUXUXUXPXUXUX  ",
"  UXUXPXUXUXUXUX-.3.vXBXVXpX5XE.i.R p j S Q Z V C C C A x A l.s.c.M =XUXUXUXUXUXUXUXUXUXUXUXPXUXUX  ",
"  UXUXPXUXUXUXUX-.3.vXBXnXBXnX-X>.t R @.[ ` Z B C C C A x S y.W *.m -XUXUXUXUXUXUXUXUXUXUXUXPXUXUX  ",
"  UXUXPXUXUXUXUX-.3.vXBXnXnXcX,X>.w W 7.@.) C B C C C A x F $.v >.M -XUXUXUXUXUXUXUXUXUXUXUXPXUXUX  ",
"  UXUXPXUXUXUXUX-.3.vXBXnXnXcX,X,.t T =.` I B V C C C A c F 7.y.P.B =XUXUXUXUXUXUXUXUXUXUXUXPXUXUX  ",
"  UXUXPXUXUXUXUX-.3.vXBXnXnXcX,X>.a / _ F V C C C C C Z l A (.xX=XB =XUXUXUXUXUXUXUXUXUXUXUXPXUXUX  ",
"  UXUXPXUXUXUXUX-.3.vXBXnXnXcX,X,.w m D C C C C C B k p h <.&X_.>.q =XUXUXUXUXUXUXUXUXUXUXUXPXUXUX  ",
"  UXUXPXUXUXUXUX-.3.vXBXnXnXcX,X,.9 x S C C C V k s a ) p.n.,.) d o +XJXIXUXUXUXUXUXUXUXUXUXPXUXUX  ",
"  UXUXPXUXUXUXUX-.4.vXBXnXnXcX,X,.9 c D V Z k s g E f.l.>.~ ^ / M r l f lXUXUXUXUXUXUXUXUXUXPXUXUX  ",
"  UXUXPXUXUXUXUX-.2.lXVXnXnXcX,X,.9 x S z p k U d.j.8.R ~ ^ ^ ) t.h.o.7 <XUXUXUXUXUXUXUXUXUXPXUXUX  ",
"  UXUXPXUXUXUXUX#.U [.kXNXNXcX,X2.e p s z R r.j.0.W Y ( ^ [ 8.b.a.-.| n q 1XUXUXUXUXUXUXUXUXPXUXUX  ",
"  UXUXPXUXUXUXUXc.t ) s.3XhXMX>Xc.( l ~ 9.l.4._ L ) ~ ..3.l.a.>.#.,.g.v.D w >XUXUXUXUXUXUXUXPXUXUX  ",
"  UXUXUXUXUXUXUX0XE f E O.j.1X@X(.~.y.h.9.{ A W /  .q.a.j.<.&.;.5.u.q.j.v.D t *XUXUXUXUXUXUXPXUXUX  ",
"  UXUXUXUXUXUXUXX.y / T K ( | i.k.H.t.] E J / | p.r.l.<.-.;.<.a.M.oX!.u.h.v.S i #XUXUXUXUXUXPXUXUX  ",
"  UXUXUXUXUXUXUX:.o.G.%.] G R Q U W ~ H E ` y.u.d.4.-.*.>.i.S.].#XXX@XY.i.f.b.S a OXUXUXUXUXPXUXUX  ",
"  UXUXUXUXUXUX Xb e.aXwXU.:.` M b b L  .0.g.e.5.:.&.>.i.G.`.$X.X+X X X@XY.f.j.v.A g OXUXUXUXPXUXUX  ",
"  UXUXUXUXUXUX3.z E.vXSXzXtXJ.t.i.u.t.k.0.<.2.=.;.a.D.{.XX@X|.+X{.@X{.OX-X~.y.l.C.k i XXUXUXPXUXUX  ",
"  UXUXUXUXUXUX8._ yXNXnXNXVXxXxXjX+Xr. .l.q. .a.F.XX[.&X{.oX.X XOX|.eX+XR.p.;.y.j.L o j.UXUXPXUXUX  ",
"  UXUXUXUXUXUX8.D XXCXMXnXnXNXnX:Xl.y.1.M.n.-.Q.{.+XOX{.#X[.oX.X-X&XT.f.:.1.<.=.g.A.c k.UXUXPXUXUX  ",
"  UXUXUXUXUXUXe.% ) z.;XmXnXmXvXP.1.3X=Xy.c.l.d.'.'.OXOX{.+X#X>XL.u.1.>.1.<.t. XkX1XZ j.UXUXPXUXUX  ",
"  UXUXUXUXUXUXDXO.< 7 ' k.1XzXcXH.,.eXGX$Xr.v.l.s.].].+X&X*XW.0.2.<.;.2.i.).lXiXR.@.0 j.UXUXPXUXUX  ",
"  UXUXUXUXUXUXUXSXNX! w q ~ c.*XZ.<.eXAXCX#Xe.n.z.p.[.OX).w.>.5.-.-.f.E.kX;XQ. .l , 6 Z.UXUXPXUXUX  ",
"  UXUXUXUXUXUXUXUXUXGXNXK f 8 T @.-.0XCXNXVX#Xw.n.x.t.y.$.4.2.&.j.W.dX>XE...r : s 0.LXKXUXUXPXUXUX  ",
"  UXUXUXUXUXUXUXUXUXUXUXIXzXJ H V N n.,XbXBXZX$Xw.n.j.,.6.-.y.(.rX2XJ.$.9 * N =.UXIXUXUXUXUXPXUXUX  ",
"  UXUXUXUXUXUXUXUXUXUXUXUXUXUXUX4Xz < ^ v.3XxXSX*Xe.t.4.w.`.6X4XL.%.0 o L @.LXUXUXUXUXUXUXUXPXUXUX  ",
"  UXUXUXUXUXUXUXUXUXUXUXUXUXUXUXUX:XO.g 2 Q v.3XkX>Xh.!.tX2XE.O.y   T =.ZXUXUXUXUXUXUXUXUXUXPXUXUX  ",
"  UXUXUXUXUXUXUXUXUXUXUXUXUXUXUXUXUXUX X6.w 8 Y V.>X9X,X~. .i   L 9.kXUXUXUXUXUXUXUXUXUXUXUXPXUXUX  ",
"  UXUXUXUXUXUXUXUXUXUXUXUXUXUXUXUXUXUXUXUX_.d.< 0 I v.*.i   B l.rXUXUXUXUXUXUXUXUXUXUXUXUXUXPXUXUX  ",
"  UXUXUXUXUXUXUXUXUXUXUXUXUXUXUXUXUXUXUXUXUXUX).b.& 6 # d J.4XUXUXUXUXUXUXUXUXUXUXUXUXUXUXUXPXUXUX  ",
"  UXUXUXUXUXUXUXUXUXUXUXUXUXUXUXUXUXUXUXUXUXUXUXUX|.).(.1XUXUXUXUXUXUXUXUXUXUXUXUXUXUXUXUXUXPXUXUX  ",
"  UXUXUXPXPXPXPXPXPXPXPXPXPXPXPXPXPXPXPXPXPXPXPXPXUXUXUXUXPXPXPXPXPXPXPXPXPXPXPXPXPXPXPXPXPXKXUXUX  ",
"  UXUXUXUXUXUXUXUXUXUXUXUXUXUXUXUXUXUXUXUXUXUXUXUXUXUXUXUXUXUXUXUXUXUXUXUXUXUXUXUXUXUXUXUXUXUXUXUX  ",
"  UXUXUXUXUXUXUXUXUXUXUXUXUXUXUXUXUXUXUXUXUXUXUXUXUXUXUXUXUXUXUXUXUXUXUXUXUXUXUXUXUXUXUXUXUXUXUXUX  ",
"                                                                                                    "
};
