/* XPM */
static char *e4d34c7f634e4ef6ad5a0098f76539a2gXWmRTd5b4zfkhIZ[] = {
/* columns rows colors chars-per-pixel */
"52 52 221 2 ",
"   c black",
".  c #4D0B2E",
"X  c #560C2B",
"o  c #4D0A33",
"O  c #530837",
"+  c #571736",
"@  c #6A1734",
"#  c #593832",
"$  c #762D39",
"%  c #31623A",
"&  c #60491F",
"*  c #5C4322",
"=  c #5C5338",
"-  c #6C4B3C",
";  c #3C2756",
":  c #51184C",
">  c #680D46",
",  c #691346",
"<  c #77184D",
"1  c #7B1751",
"2  c #56254A",
"3  c #51354D",
"4  c #442C52",
"5  c #562854",
"6  c #672D48",
"7  c #793D48",
"8  c #6C2D50",
"9  c #673954",
"0  c #4A1961",
"q  c #532D6E",
"w  c #61336D",
"e  c #673B79",
"r  c #397042",
"t  c #4F4A5F",
"y  c #7A4249",
"u  c #6C425D",
"i  c #7C4954",
"p  c #6C684A",
"a  c #4C536F",
"s  c #694869",
"d  c #764B65",
"f  c #7A536B",
"g  c #7E5A71",
"h  c #7A567A",
"j  c #546E7A",
"k  c #7E6475",
"l  c #85293B",
"z  c #8E3430",
"x  c #A63D3E",
"c  c #8B4D39",
"v  c #AF452C",
"b  c #B94A38",
"n  c #CB5D07",
"m  c #D96418",
"M  c #E56D08",
"N  c #F37801",
"B  c #CB5828",
"V  c #C35232",
"C  c #811D4E",
"Z  c #8A264B",
"A  c #8A3747",
"S  c #8C314C",
"D  c #9A324A",
"F  c #A63C44",
"G  c #A73C45",
"H  c #88494A",
"J  c #8F5152",
"K  c #8A5658",
"L  c #B24443",
"P  c #B44B49",
"I  c #AE5B4E",
"U  c #A64A54",
"Y  c #A45A54",
"T  c #98665F",
"R  c #AD6544",
"E  c #B3684F",
"W  c #AC6652",
"Q  c #B97357",
"!  c #8C4F62",
"~  c #855966",
"^  c #845E73",
"/  c #996A64",
"(  c #9B736B",
")  c #8C6C71",
"_  c #856378",
"`  c #8B6A7B",
"'  c #A96A6D",
"]  c #A6786B",
"[  c #C2685C",
"{  c #CA7653",
"}  c #C77B59",
"|  c #C47366",
" . c #688747",
".. c #568E7D",
"X. c #69A97B",
"o. c #7ACC6B",
"O. c #859219",
"+. c #8BA816",
"@. c #94BB16",
"#. c #8AA223",
"$. c #A3D314",
"%. c #A8E70E",
"&. c #AAE90D",
"*. c #B3E90A",
"=. c #A6E617",
"-. c #A9E910",
";. c #9CDB26",
":. c #8DC837",
">. c #98DD34",
",. c #AADA2C",
"<. c #B6E932",
"1. c #CDEB06",
"2. c #8F9861",
"3. c #B18C73",
"4. c #D7865B",
"5. c #CD8763",
"6. c #D48866",
"7. c #CF9171",
"8. c #D99975",
"9. c #E39A6D",
"0. c #E4AA7D",
"q. c #8CD246",
"w. c #83D25B",
"e. c #B2DB45",
"r. c #80CF62",
"t. c #CBD15E",
"y. c #4A3888",
"u. c #513692",
"i. c #563597",
"p. c #613891",
"a. c #543AA1",
"s. c #603EA2",
"d. c #604997",
"f. c #4F7793",
"g. c #7F6182",
"h. c #454EBB",
"j. c #584CB1",
"k. c #6749AA",
"l. c #7A5CAC",
"z. c #6349BC",
"x. c #5354C5",
"c. c #495DD7",
"v. c #5959D4",
"b. c #604DC4",
"n. c #6052C9",
"m. c #5867D9",
"M. c #4C67EA",
"N. c #586CE9",
"B. c #4A6CF2",
"V. c #6176EC",
"C. c #886D84",
"Z. c #8D7082",
"A. c #8E718D",
"S. c #957988",
"D. c #8379C7",
"F. c #3B88AC",
"G. c #5DAC8D",
"H. c #55A698",
"J. c #6DA394",
"K. c #56B8AA",
"L. c #78C396",
"P. c #359ACA",
"I. c #38ACD6",
"U. c #47B1C1",
"Y. c #99848D",
"T. c #9D8996",
"R. c #A0838C",
"E. c #A38A99",
"W. c #AA9299",
"Q. c #8F88A7",
"!. c #AA97A3",
"~. c #B19BAA",
"^. c #ACABAB",
"/. c #B5A0AC",
"(. c #B9AAB3",
"). c #BBB7BA",
"_. c #C39B81",
"`. c #CBA788",
"'. c #D8A886",
"]. c #DAB58B",
"[. c #DFBA92",
"{. c #E6AF82",
"}. c #E7B387",
"|. c #EBBA8C",
" X c #E9BE93",
".X c #C1AFB7",
"XX c #C2B4BC",
"oX c #ECC596",
"OX c #F2C997",
"+X c #F1CA9A",
"@X c #F3D19F",
"#X c #CBCAAC",
"$X c #F4D3A1",
"%X c #F5D9AD",
"&X c #EFD3B2",
"*X c #9093CF",
"=X c #99A9F3",
"-X c #C7BBC4",
";X c #CABBC4",
":X c #D0BFC8",
">X c #B8C4F0",
",X c #CEC3C9",
"<X c #CCC4C9",
"1X c #D1C5CC",
"2X c #D2C9CF",
"3X c #D6CDD3",
"4X c #D9D1D6",
"5X c #DED6DB",
"6X c #DBD8DA",
"7X c #E7CDC7",
"8X c #E1DBDE",
"9X c #E8F0D1",
"0X c #C7D0F6",
"qX c #E4DDE1",
"wX c #E5E2E4",
"eX c #E9E5E8",
"rX c #EDEAEC",
"tX c #F1EEF0",
"yX c #F4F3F3",
"uX c #F8F7F8",
"iX c #FFFFFF",
/* pixels */
"                                                                                                        ",
"                                                                                                        ",
"    iXiXiXiXiXiXiXiXiXiXiXiXiXiXiXiXiXiXiXiXiXiXiXiXiXiXiXiXiXiXiXiXiXiXiXiXiXiXiXiXiXiXiXiXiXiXiXiX    ",
"    iXiXiXiXiXiXiXiXiXiXiXiXiXiXiXiXiXiXiXiXiXiXiXiXiXiXiXiXiXiXiXiXiXiXiXiXiXiXiXiXiXiXiXiXiXiXiXiX    ",
"    iXiXiXiXiXiXiXuXiXiXiXiXiXiXiXiXiXiXiXiXiXiXiXiXiXiXiXiXiXiXiXiXiXiXiXiXiXiXiXiXiXiXiXiXiXiXiXiX    ",
"    iXiXiXiXiXiXiXiXiXiXiXiXiXiXiXiXiXiXiXiXiX8X5XiXiXiXiXiXiXiXiXiXiXiXiXiXiXiXiXiXiXiXiXiXiXiXiXiX    ",
"    iXiXiXiXiXiXiXiXiXiXiXiXiXiXiXiXiXiXiXtX4Xd _ tXiXiXyX2X1XqXiXiXiXiXiXiXiXiXiXiXiXiXiXiXiXiXiXiX    ",
"    iXiXiXiXiXiXiXiXiXiXiXiXiXiXiXiXiXiXuX,Xf o f yXiXiXqX9 6 E.rXiXiXiXiXiXiXiXiXiXiXiXiXiXiXiXiXiX    ",
"    iXiXiXiXiXiXiXiXiXiXiXiXiXiXiXiXiXiX:X! l 1 8 A.S.E.' $ X ^ eXiXiXiXiXiXiXiXiXiXiXiXiXiXiXiXiXiX    ",
"    iXiXiXiXiXiXiXiXiXiXiXiXyX(.1XiXyXXX_ l G Z , O @ @ $ F @ C.eXiXiXiXiXiXiXiXiXiXiXiXiXiXiXiXiXiX    ",
"    iXiXiXiXiXiXiXiXiXiXiXiX2Xd Y.wX;X^ l G G C C C G G G x @ C.tXiXiXiXiXiXiXiXiXiXiXiXiXiXiXiXiXiX    ",
"    iXiXiXiXiXiXiXiXiXiXiXiX4Xu T.;X! A G G Z C Z G G L G F @ ^ wXiXiXiXiXiXiXiXiXiXiXiXiXiXiXiXiXiX    ",
"    iXiXiXiXiXiXiXiXiXiXiX,X` H ! T v v P G C D x m V G L x @ 2 ^ S.,XuXiXiXiXiXiXiXiXiXiXiXiXiXiXiX    ",
"    iXiXiXiXiXiXiXiXiXiXiX/.+ v z z M B G D Z x m N V V B G @ . o o ~.uXiXiXiXiXiXiXiXiXiXiXiXiXiXiX    ",
"    iXiXiXiXiXiXiXiXiXrXeXY.X n v x M B F Z G m N N V B M x @ O > o T.tXiXiXiXiXiXiXiXiXiXiXiXiXiXiX    ",
"    iXiXiXiXiXiXiXiX3X` u 2 X v b v b b G G G V m N V b b Z > < > o !.iXiXiXiXiXiXiXiXiXiXiXiXiXiXiX    ",
"    iXiXiXiXiXiXiXiXqXE.6 X $ S D L L L L L L L V m V G G C 1 1 > o f 2XiXiXiXiXiXiXiXiXiXiXiXiXiXiX    ",
"    iXiXiXiXiXiXiXiXiXiXE.S l C Z U | | [ [ [ [ [ [ P G D C > > > O . g rXiXiXiXiXiXiXiXiXiXiXiXiXiX    ",
"    iXiXiXiXiXiXiXiXiXiXqX~.8 , C S.7X&X X X X X X}.[ D 1 < > O O > O f rXiXiXiXiXiXiXiXiXiXiXiXiXiX    ",
"    iXiXiXiXiXiXiXiXiXiXuXqX/.8 D | &X%X$X$X$X$X%XOX| U 1 1 ' K O > O f rXiXiXiXiXiXiXiXiXiXiXiXiXiX    ",
"    iXiXiXiXiXiXiXiXiXiXiXiXtX9 @ E 0.OX$X$X$X_.] ] } U 1 Y '.] o O d -XuXiXiXiXiXiXiXiXiXiXiXiXiXiX    ",
"    iXiXiXiXiXiXiXiXiXiXiXiXrX9 . - Q 0.oXoX].p 9 ! } E U 8. X] + 9 ;XiXiXiXiXiXiXiXiXiXiXiXiXiXiXiX    ",
"    iXiXiXiXiXiXiXiXiXiXiXiXrX9 % % $ Q 9.5.y r X.<X9.{ 6.|.+X] u .XiXiXiXiXiXiXiXiXiXiXiXiXiXiXiXiX    ",
"    iXiXiXiXiXiXiXiXiXiXiXiXrX9 - 2.R 8.0.9.W 2.#X%X9.4.{ K ! W.qXyXiXiXiXiXiXiXiXiXiXiXiXiXiXiXiXiX    ",
"    iXiXiXiXiXiXiXiXiXiXiXiXtXZ.J E 4.|.@XoX0.oX+XOX9.{ H t = 2..X~.qXiXiXiXiXiXiXiXiXiXiXiXiXiXiXiX    ",
"    iXiXiXiXiXiXiXiXiXiXiXiXiXwXS.7 } }.OXoXOX@XOXoX5.H t H.o.O.# # S.eXyXiXiXiXiXiXiXiXiXiXiXiXiXiX    ",
"    iXiXiXiXiXiXiXiXiXiXiXiXiXiX<XS.7 E 9.9.oXoX}.5.y j H.:.$.$.@.@.p 9 ^ eXuXiXiXiXiXiXiXiXiXiXiXiX    ",
"    iXiXiXiXiXiXiXiXiXiXiXiXiXyX^.) O.c c H T ) T c a ..o.=.%.%.=.*.+.O.( S.;XiXiXiXiXiXiXiXiXiXiXiX    ",
"    iXiXiXiXiXiXiXiXiXiXiXiXiXtX` & @.p ; ; * * * = G.o.&.&.&.&.-.-.<.t.oX/ R.8XiXiXiXiXiXiXiXiXiXiX    ",
"    iXiXiXiXiXiXiXiXiXiXiXiXiXyXY.* :.G.P.H.:.$.$.$.$.=.&.&.&.-.;.$.t.].].].] ~ qXyXiXiXiXiXiXiXiXiX    ",
"    iXiXiXiXiXiXiXiXiXiXiXiXiXqXC.3 H.K.I.K.>.&.&.&.%.%.=.%.1.e.X.= - i K 5.5.Y ` ,XiXiXiXiXiXiXiXiX    ",
"    iXiXiXiXiXiXiXiXiXiXiXiXeXT.K ~ J.f.a ..;.&.&.&.%.*.*.1.<.L.F.4 ^ E.T.J } 8./ R.3XiXiXiXiXiXiXiX    ",
"    iXiXiXiXiXiXiXiXiX2X-X-XW.i I { E ~ u p #.:.>.=.-.>.>.e.L.U.f.4 :XuXiX` ( `. X( S.3XtXiXiXiXiXiX    ",
"    iXiXiXiXiXiXiXrX<Xf 9 9 9 W { E H /.5X!.= ..o.;.-.w.K.K.U.I.P.; ;XiXiXXX` K [. X] k 4XiXiXiXiXiX    ",
"    iXiXiXiXiXiXiX(.~ ] 3.3.7.'.Q ~ XXtXiX,X9  .q.=.=.>.w.o.K.I.F.4 ;XiXuXS.) _.+X|.Y 9 ,XiXiXiXiXiX    ",
"    iXiXiXiXiXiXiXT.y ]._.`.+X}.K u 8XiXiX:X6 O.&.&.%.%.-.,.o.K.F.4 ;XiXuXd / oX{.Q J Z.4XiXiXiXiXiX    ",
"    iXiXiXiXiXiXiX/.K W.K K  X5.H g 6XiXiXXX2 O.$.<.<.<.$.$.$.r.f.4 ;XiXuX^ ( '.Q H ` 4XiXiXiXiXiXiX    ",
"    iXiXiXiXiXiXiXtX.Xi o $ } 7 ` 2XuXiXiX;X9 $ 7.9X9X`.R I R Y H + ;XiXiXrXR.6 6 Y.4XiXiXiXiXiXiXiX    ",
"    iXiXiXiXiXiXiXiX6X~.9 + H ` -XuXiXiX,XA.j.k.*X=X=XD.l.l.l.l.d.: -XiXiXiX:X!.E.3XiXiXiXiXiXiXiXiX    ",
"    iXiXiXiXiXiXiXiXiXtXW.f _ 2XiXiXiX8XA.y.c.M.c.h.h.h.x.M.M.B.c.y.C..XuXiXuXiXuXiXiXiXiXiXiXiXiXiX    ",
"    iXiXiXiXiXiXiXiXiXiXiXiXiXiXiXiX2Xg.a.M.M.b.p.5 2 5 q k.v.B.B.c.y.f 3XiXiXiXiXiXiXiXiXiXiXiXiXiX    ",
"    iXiXiXiXiXiXiXiXiXiXiXiXiXiXiX5Xg.d.c.M.b.q h XX(.XX~.w i.v.B.M.z.e f 6XiXiXiXiXiXiXiXiXiXiXiXiX    ",
"    iXiXiXiXiXiXiXiXiXiXiXiXiXiXiX,X2 i.c.n.k.: ^ yXiXiXrXR.e i.v.v.z.y.: XXiXiXiXiXiXiXiXiXiXiXiXiX    ",
"    iXiXiXiXiXiXiXiXiXiXiXiXiXiXiX<X2 u.b.b.z.0 g tXiXiXuXqXT.e s.s.z.j.q ~.8XiXiXiXiXiXiXiXiXiXiXiX    ",
"    iXiXiXiXiXiXiXiXiXiXiXiXuX8XwXXX9 j.V.V.N.q _ tXiXiXiXrXeXE.q j.V.V.m.s !.iXiXiXiXiXiXiXiXiXiXiX    ",
"    iXiXiXiXiXiXiXiXiXiXiXiXtX` d k Q.0X0X>X*X3 g tXiXiXiXiXiX/.5 D.>X0X0XQ.` !.iXiXiXiXiXiXiXiXiXiX    ",
"    iXiXiXiXiXiXiXiXiXiXiXiXrX9 u !.wXiXiXeX).u ^ tXiXiXiXiXiX~.9 ).yXiXuX<Xk u iXuXiXiXiXiXiXiXiXiX    ",
"    iXiXiXuXiXiXiXiXiXuXiXiXiXiXT.eXrXyX6X).^.s ` rXiXiXiXiXiX/.d <XyXtXrX).k d iXiXiXiXiXiXiXiXiXiX    ",
"    iXiXiXiXiXiXiXiXiXiXiXiXiXiXj j j j j j j j j iXiXiXiXiXiXj j j j j j j j j iXiXiXiXiXiXiXiXiXiX    ",
"    iXiXiXiXiXiXiXiXiXiXiXiXiXiXiXiXiXiXiXiXiXiXiXiXiXiXiXiXiXiXiXiXiXiXiXiXiXiXiXiXiXiXiXiXiXiXiXiX    ",
"                                                                                                        ",
"                                                                                                        "
};
